<svg width="24" height="24" viewBox="0 0 24 24" fill="none" xmlns="http://www.w3.org/2000/svg">
<path d="M22.765 16.7803H5.9908C5.67303 16.7803 5.36827 16.654 5.14357 16.4292C4.91887 16.2044 4.79264 15.8996 4.79264 15.5817C4.79264 15.2638 4.91887 14.9589 5.14357 14.7341C5.36827 14.5094 5.67303 14.3831 5.9908 14.3831H18.4996C19.3007 14.3831 20.0789 14.1154 20.7106 13.6225C21.3423 13.1296 21.7913 12.4396 21.9862 11.6623L23.9632 3.88343C24.0081 3.70653 24.012 3.52171 23.9746 3.34307C23.9372 3.16444 23.8595 2.9967 23.7475 2.85265C23.631 2.7049 23.4813 2.58667 23.3106 2.50755C23.14 2.42842 22.953 2.39061 22.765 2.39718H5.70324C5.45604 1.69774 4.99864 1.09191 4.39373 0.662747C3.78882 0.23358 3.06602 0.00208496 2.32443 0H1.19816C0.880388 0 0.575631 0.12628 0.350933 0.351059C0.126234 0.575838 0 0.880704 0 1.19859C0 1.51648 0.126234 1.82134 0.350933 2.04612C0.575631 2.2709 0.880388 2.39718 1.19816 2.39718H2.32443C2.59813 2.3892 2.86631 2.47525 3.08431 2.64099C3.30231 2.80673 3.45699 3.04217 3.52259 3.30811L3.59448 3.88343L5.66729 11.9859C4.71398 12.0288 3.81675 12.4488 3.17299 13.1535C2.52923 13.8582 2.19167 14.7898 2.23457 15.7435C2.27747 16.6971 2.69731 17.5947 3.40174 18.2387C4.10617 18.8827 5.03748 19.2204 5.9908 19.1774H6.20647C6.00941 19.7206 5.94609 20.3032 6.02187 20.876C6.09764 21.4488 6.31028 21.9949 6.64178 22.468C6.97328 22.9411 7.41387 23.3274 7.92625 23.5941C8.43863 23.8608 9.0077 24 9.58528 24C10.1629 24 10.7319 23.8608 11.2443 23.5941C11.7567 23.3274 12.1973 22.9411 12.5288 22.468C12.8603 21.9949 13.0729 21.4488 13.1487 20.876C13.2245 20.3032 13.1611 19.7206 12.9641 19.1774H15.7917C15.5947 19.7206 15.5314 20.3032 15.6071 20.876C15.6829 21.4488 15.8956 21.9949 16.2271 22.468C16.5586 22.9411 16.9991 23.3274 17.5115 23.5941C18.0239 23.8608 18.593 24 19.1706 24C19.7481 24 20.3172 23.8608 20.8296 23.5941C21.342 23.3274 21.7826 22.9411 22.1141 22.468C22.4455 21.9949 22.6582 21.4488 22.734 20.876C22.8097 20.3032 22.7464 19.7206 22.5494 19.1774H22.765C23.0828 19.1774 23.3876 19.0512 23.6123 18.8264C23.837 18.6016 23.9632 18.2967 23.9632 17.9789C23.9632 17.661 23.837 17.3561 23.6123 17.1313C23.3876 16.9065 23.0828 16.7803 22.765 16.7803ZM21.2314 4.79436L19.6618 11.075C19.5962 11.3409 19.4415 11.5764 19.2235 11.7421C19.0055 11.9078 18.7373 11.9939 18.4636 11.9859H8.12352L6.32628 4.79436H21.2314ZM9.58528 21.5746C9.3483 21.5746 9.11665 21.5043 8.91961 21.3726C8.72258 21.2409 8.56901 21.0537 8.47832 20.8347C8.38764 20.6157 8.36391 20.3747 8.41014 20.1422C8.45637 19.9097 8.57048 19.6961 8.73805 19.5285C8.90562 19.3609 9.11911 19.2467 9.35153 19.2005C9.58395 19.1542 9.82486 19.178 10.0438 19.2687C10.2627 19.3594 10.4499 19.513 10.5815 19.7101C10.7132 19.9072 10.7834 20.139 10.7834 20.376C10.7834 20.6939 10.6572 20.9988 10.4325 21.2236C10.2078 21.4483 9.90305 21.5746 9.58528 21.5746ZM19.1706 21.5746C18.9336 21.5746 18.7019 21.5043 18.5049 21.3726C18.3079 21.2409 18.1543 21.0537 18.0636 20.8347C17.9729 20.6157 17.9492 20.3747 17.9954 20.1422C18.0416 19.9097 18.1558 19.6961 18.3233 19.5285C18.4909 19.3609 18.7044 19.2467 18.9368 19.2005C19.1692 19.1542 19.4101 19.178 19.6291 19.2687C19.848 19.3594 20.0351 19.513 20.1668 19.7101C20.2984 19.9072 20.3687 20.139 20.3687 20.376C20.3687 20.6939 20.2425 20.9988 20.0178 21.2236C19.7931 21.4483 19.4883 21.5746 19.1706 21.5746Z" fill="white"/>
</svg>
